HIERARCHY
ROOT SpineBase
{
  OFFSET 0.000000 0.000000 0.000000
  CHANNELS 6 Xposition Yposition Zposition Zrotation Xrotation Yrotation
  JOINT SpineMid
  {
    OFFSET 0.000000 33.466218 0.000000
    CHANNELS 3 Zrotation Xrotation Yrotation
    JOINT SpineShoulder
    {
      OFFSET 0.141653 24.836708 -0.991459
      CHANNELS 3 Zrotation Xrotation Yrotation
      JOINT Neck
      {
        OFFSET 0.129020 8.215455 -0.698020
        CHANNELS 3 Zrotation Xrotation Yrotation
        JOINT Head
        {
          OFFSET 9.160881 9.365329 0.096336
          CHANNELS 3 Zrotation Xrotation Yrotation
          End Site
          {
            OFFSET 0 0 0
          }
        }
      }
      JOINT ShoulderLeft
      {
        OFFSET -10.629537 -1.278562 -10.915042
        CHANNELS 3 Zrotation Xrotation Yrotation
        JOINT ElbowLeft
        {
          OFFSET -7.989155 -24.343227 -4.812882
          CHANNELS 3 Zrotation Xrotation Yrotation
          JOINT WristLeft
          {
            OFFSET 1.056274 -25.646903 -5.126889
            CHANNELS 3 Zrotation Xrotation Yrotation
            JOINT HandLeft
            {
              OFFSET -0.364817 -6.816526 -0.519814
              CHANNELS 3 Zrotation Xrotation Yrotation
              JOINT HandTipLeft
              {
                OFFSET -0.310017 -6.823359 0.232716
                CHANNELS 3 Zrotation Xrotation Yrotation
                End Site
                {
                  OFFSET 0 0 0
                }
              }
              JOINT ThumbLeft
              {
                OFFSET -1.929712 -0.770437 -2.676799
                CHANNELS 3 Zrotation Xrotation Yrotation
                End Site
                {
                  OFFSET 0 0 0
                }
              }
            }
          }
        }
      }
      JOINT ShoulderRight
      {
        OFFSET 9.583939 -9.735817 13.486136
        CHANNELS 3 Zrotation Xrotation Yrotation
        JOINT ElbowRight
        {
          OFFSET 1.636225 -24.627344 2.274612
          CHANNELS 3 Zrotation Xrotation Yrotation
          JOINT WristRight
          {
            OFFSET 4.430676 -21.736650 -8.877245
            CHANNELS 3 Zrotation Xrotation Yrotation
            JOINT HandRight
            {
              OFFSET 0.791825 -4.127003 -2.806656
              CHANNELS 3 Zrotation Xrotation Yrotation
              JOINT HandTipRight
              {
                OFFSET -0.928416 -7.777433 -2.222471
                CHANNELS 3 Zrotation Xrotation Yrotation
                End Site
                {
                  OFFSET 0 0 0
                }
              }
              JOINT ThumbRight
              {
                OFFSET -3.274922 0.612982 -3.537604
                CHANNELS 3 Zrotation Xrotation Yrotation
                End Site
                {
                  OFFSET 0 0 0
                }
              }
            }
          }
        }
      }
    }
  }
  JOINT HipLeft
  {
    OFFSET -3.871875 1.967255 -8.928344
    CHANNELS 3 Zrotation Xrotation Yrotation
    JOINT KneeLeft
    {
      OFFSET -1.786427 -34.852431 -9.377269
      CHANNELS 3 Zrotation Xrotation Yrotation
      JOINT AnkleLeft
      {
        OFFSET -3.422298 -37.439486 1.721928
        CHANNELS 3 Zrotation Xrotation Yrotation
        JOINT FootLeft
        {
          OFFSET 9.741101 -2.837139 -11.513713
          CHANNELS 3 Zrotation Xrotation Yrotation
          End Site
          {
            OFFSET 0 0 0
          }
        }
      }
    }
  }
  JOINT HipRight
  {
    OFFSET 5.102122 0.141952 1.223733
    CHANNELS 3 Zrotation Xrotation Yrotation
    JOINT KneeRight
    {
      OFFSET 4.262312 -34.469053 -2.246351
      CHANNELS 3 Zrotation Xrotation Yrotation
      JOINT AnkleRight
      {
        OFFSET -9.736532 -38.770087 2.011940
        CHANNELS 3 Zrotation Xrotation Yrotation
        JOINT FootRight
        {
          OFFSET 5.334014 -7.117038 -6.320172
          CHANNELS 3 Zrotation Xrotation Yrotation
          End Site
          {
            OFFSET 0 0 0
          }
        }
      }
    }
  }
}
MOTION
Frames: 13
Frame Time: 0.033333
-40.574131 72.765662 362.937135 -12.140402 -3.431345 -11.957772 -0.519569 0.428101 11.177666 0.015903 -0.108822 -0.544339 22.484813 3.593043 -0.361000 0.000000 0.000000 0.000000 -24.750078 -2.410468 9.395105 107.970337 -17.694970 -11.889621 7.136285 15.528789 -3.668248 -4.710076 -33.289936 35.805042 0.000000 0.000000 0.000000 0.000000 0.000000 0.000000 12.261913 6.145669 0.858277 -2.999728 54.078985 12.654751 -29.658474 8.246520 5.055019 -10.155474 16.438156 -26.591999 0.000000 0.000000 0.000000 0.000000 0.000000 0.000000 1.094888 16.666923 14.332572 1.356788 -8.862810 -2.243342 -5.416754 -15.286387 22.588077 0.000000 0.000000 0.000000 20.690242 7.870578 9.314850 1.296336 -16.588443 6.947411 -17.270274 33.056700 17.386695 0.000000 0.000000 0.000000
-39.529166 70.607061 365.015704 -10.322245 -4.272316 -5.872139 -0.837275 0.663673 5.164178 -0.161966 -0.080962 -0.477389 22.890408 5.485440 -2.396789 0.000000 0.000000 0.000000 -32.936762 -7.492773 10.635445 115.882134 -19.303103 -16.434630 4.760791 32.402240 -18.675657 7.683407 -43.747708 48.156069 0.000000 0.000000 0.000000 0.000000 0.000000 0.000000 12.011317 5.739668 0.665538 -3.958191 55.290740 12.657187 -29.725405 8.069481 4.892338 -10.243058 16.488605 -26.593104 0.000000 0.000000 0.000000 0.000000 0.000000 0.000000 -1.271490 19.029162 9.105765 1.725248 -9.262886 -2.912873 -4.300214 -17.846172 20.717902 0.000000 0.000000 0.000000 18.739058 5.564191 3.579746 -0.009400 -14.999349 6.179963 -19.137774 33.530546 22.927598 0.000000 0.000000 0.000000
-38.589202 68.720175 367.051856 -8.596559 -4.888470 -2.209587 -0.707505 0.714731 1.584845 -0.286714 -0.116361 -0.395742 22.531732 7.197897 -4.258381 0.000000 0.000000 0.000000 -43.491459 -13.738770 11.429444 124.809956 -21.548735 -21.093380 -0.445696 45.360640 -27.788547 22.148014 -46.280440 56.720446 0.000000 0.000000 0.000000 0.000000 0.000000 0.000000 10.169397 5.253022 0.441443 -3.946829 57.011819 13.009083 -29.848490 7.596697 4.467147 -10.318459 16.530807 -26.594244 0.000000 0.000000 0.000000 0.000000 0.000000 0.000000 -3.630961 20.996491 6.279191 1.774061 -9.389452 -3.548105 -1.486314 -17.382022 19.485733 0.000000 0.000000 0.000000 16.116319 4.351525 0.210583 -0.379646 -13.263739 5.463382 -21.579825 33.858274 28.654200 0.000000 0.000000 0.000000
-37.723137 67.239028 368.891713 -6.888148 -5.432543 0.871867 -0.779403 0.733563 -1.392162 -0.416837 -0.200698 -0.325620 23.441720 8.226272 -5.538110 0.000000 0.000000 0.000000 -52.697498 -19.152934 11.465719 132.374271 -23.612775 -24.586598 -5.476347 54.546459 -32.766814 25.053430 -45.680633 53.362114 0.000000 0.000000 0.000000 0.000000 0.000000 0.000000 6.993612 4.943354 0.247700 -2.669569 58.295913 13.603851 -29.904917 7.305961 4.208807 -10.363752 16.560269 -26.594012 0.000000 0.000000 0.000000 0.000000 0.000000 0.000000 -6.690414 23.661207 4.490470 1.990761 -11.816165 -4.371918 -0.487488 -18.300363 19.905271 0.000000 0.000000 0.000000 13.817060 3.702831 -2.669686 -1.569705 -11.259628 4.620630 -21.519336 32.009312 30.704237 0.000000 0.000000 0.000000
-37.139155 66.460791 370.438934 -5.830193 -5.732561 3.516294 -0.819301 0.600842 -3.969974 -0.379894 -0.334019 -0.277377 25.731225 8.867359 -6.646903 0.000000 0.000000 0.000000 -59.370054 -23.011462 11.181668 137.882723 -25.090759 -26.817534 -10.660706 61.514546 -35.223593 20.460654 -46.968651 43.610169 0.000000 0.000000 0.000000 0.000000 0.000000 0.000000 2.461764 5.173259 0.150121 0.174838 58.702793 14.350743 -29.880395 7.245089 4.161247 -10.378449 16.573713 -26.593088 0.000000 0.000000 0.000000 0.000000 0.000000 0.000000 -9.031305 26.271180 3.142641 1.040298 -13.568522 -5.621943 5.119064 -14.696838 17.212296 0.000000 0.000000 0.000000 13.772265 2.979195 -5.364454 -4.262500 -8.819933 3.880497 -19.871441 33.524720 32.773761 0.000000 0.000000 0.000000
-36.655491 65.801626 371.789261 -5.693386 -6.226222 4.122027 -0.562590 0.425003 -4.595267 -0.340361 -0.380320 -0.249713 27.419445 9.756142 -7.824962 0.000000 0.000000 0.000000 -62.834715 -25.362139 11.127960 140.909772 -25.880462 -28.396575 -17.823199 64.516778 -32.695149 20.637551 -45.927230 39.822769 0.000000 0.000000 0.000000 0.000000 0.000000 0.000000 -2.461222 5.179371 0.100395 3.980194 60.363909 15.335604 -30.100328 6.551281 3.528504 -10.375732 16.580717 -26.591220 0.000000 0.000000 0.000000 0.000000 0.000000 0.000000 -10.910233 27.102711 3.673211 -0.532902 -12.863672 -6.886103 15.015735 -5.430671 16.410550 0.000000 0.000000 0.000000 14.717855 3.247582 -6.196766 -7.389150 -7.310062 3.285525 -17.754897 38.377788 36.116570 0.000000 0.000000 0.000000
-35.839652 65.912373 372.673831 -6.006496 -6.684167 3.308272 -0.086658 0.247429 -3.846423 -0.119539 -0.315651 -0.223516 27.873365 10.719663 -8.989841 0.000000 0.000000 0.000000 -61.901306 -26.709426 11.202627 139.539357 -26.135365 -30.690316 -18.003587 64.334240 -32.682282 21.325763 -47.456269 40.736653 0.000000 0.000000 0.000000 0.000000 0.000000 0.000000 -6.820109 5.410745 0.150065 7.144208 60.726903 16.168807 -30.028412 6.499475 3.498290 -10.359730 16.566723 -26.592062 0.000000 0.000000 0.000000 0.000000 0.000000 0.000000 -12.760618 26.677801 5.495633 -1.587833 -10.920027 -7.738954 25.218333 1.895302 9.459390 0.000000 0.000000 0.000000 15.533918 4.116604 -5.616412 -9.562021 -6.319299 2.759666 -17.349718 35.999368 37.024594 0.000000 0.000000 0.000000
-34.883942 66.866902 373.107421 -7.524546 -7.123176 2.398493 -0.104629 0.297007 -3.105211 0.121495 -0.262407 -0.282222 32.518551 10.067842 -8.707700 0.000000 0.000000 0.000000 -56.581504 -25.707444 11.822536 135.781279 -25.486281 -31.543396 -18.495768 60.056365 -29.307640 22.183479 -46.221393 42.844434 0.000000 0.000000 0.000000 0.000000 0.000000 0.000000 -9.513245 5.553872 0.274829 10.576085 62.350829 17.054817 -30.362992 5.508698 2.587014 -10.307075 16.503209 -26.598520 0.000000 0.000000 0.000000 0.000000 0.000000 0.000000 -12.724045 25.651194 6.829543 -1.811300 -8.419710 -7.979186 37.516158 14.090592 5.218096 0.000000 0.000000 0.000000 17.157945 4.780762 -5.035194 -10.139322 -5.394425 2.443340 -16.764967 35.207266 36.924828 0.000000 0.000000 0.000000
-33.638013 67.673187 373.454582 -7.010420 -7.188489 2.231872 -0.014467 0.156654 -2.900856 0.362721 -0.224248 -0.243944 31.207373 10.284523 -8.791652 0.000000 0.000000 0.000000 -55.600233 -24.560438 12.186246 134.320240 -25.152465 -31.133128 -23.900317 58.165357 -24.645877 24.504883 -46.704097 44.156141 0.000000 0.000000 0.000000 0.000000 0.000000 0.000000 -12.670875 5.896074 0.387499 11.670031 60.119299 17.722288 -29.485503 6.868301 3.914863 -10.279328 16.495547 -26.596421 0.000000 0.000000 0.000000 0.000000 0.000000 0.000000 -14.433459 24.622670 7.551396 -1.407043 -5.700778 -7.990181 52.919229 22.009702 -7.488892 0.000000 0.000000 0.000000 15.723735 5.353739 -4.671153 -9.541584 -5.252555 2.154305 -17.223834 25.728431 32.855539 0.000000 0.000000 0.000000
-32.185474 68.970783 373.402772 -6.006301 -7.057488 3.177797 -0.238453 0.120244 -3.736144 0.406406 -0.123201 -0.203731 30.250654 10.213560 -8.836515 0.000000 0.000000 0.000000 -57.459418 -21.549839 12.713116 135.637473 -24.678989 -27.229003 -20.793514 59.223606 -26.871049 24.397267 -43.664147 44.421509 0.000000 0.000000 0.000000 0.000000 0.000000 0.000000 -14.672439 6.337711 0.500398 11.601123 55.041648 17.836513 -27.960958 9.944852 6.750149 -10.282834 16.523264 -26.591015 0.000000 0.000000 0.000000 0.000000 0.000000 0.000000 -14.740279 23.769456 6.369477 -2.164268 -4.388835 -7.925108 58.372923 23.908923 -11.969258 0.000000 0.000000 0.000000 12.954278 4.717028 -5.181582 -7.110242 -4.325218 2.080612 -18.096554 19.979257 29.797886 0.000000 0.000000 0.000000
-30.466366 69.534657 373.098234 -4.806669 -6.655678 3.491896 -0.390332 0.101573 -3.914132 0.344830 -0.309042 -0.165183 29.527509 10.460616 -9.496426 0.000000 0.000000 0.000000 -60.950616 -20.604577 12.868430 137.579873 -24.832017 -24.918885 -21.667657 58.378155 -24.981374 27.469551 -35.877601 45.097912 0.000000 0.000000 0.000000 0.000000 0.000000 0.000000 -13.787963 7.071427 0.591552 9.431384 50.800831 17.244321 -27.021122 12.290482 8.822181 -10.326175 16.559363 -26.589144 0.000000 0.000000 0.000000 0.000000 0.000000 0.000000 -16.233892 22.479172 6.170893 -2.174701 -4.328237 -8.007904 55.506399 24.325469 -8.189278 0.000000 0.000000 0.000000 10.690153 2.691656 -5.256691 -7.088881 -1.082011 1.922857 -17.085372 15.044088 27.273964 0.000000 0.000000 0.000000
-28.714793 69.227809 372.324355 -3.331228 -5.930294 2.953090 -0.420061 0.090821 -3.217298 0.283568 -0.393068 -0.105479 28.114849 10.557589 -10.259892 0.000000 0.000000 0.000000 -62.935996 -19.099755 12.704399 138.356286 -24.423530 -22.800976 -18.133967 57.628329 -26.604244 25.937318 -33.117230 44.121602 0.000000 0.000000 0.000000 0.000000 0.000000 0.000000 -13.405045 7.335808 0.536387 8.015663 48.208059 16.494671 -26.799745 13.567835 9.909042 -10.354096 16.580905 -26.588291 0.000000 0.000000 0.000000 0.000000 0.000000 0.000000 -17.728674 20.448591 6.443162 -1.927368 -4.224710 -7.831270 56.965564 25.857746 -10.255949 0.000000 0.000000 0.000000 8.456143 0.609851 -4.503463 -8.141405 0.958819 2.060161 -14.695356 13.790241 25.804519 0.000000 0.000000 0.000000
-27.215037 68.144340 371.326398 -1.921144 -5.043489 2.544327 -0.433927 0.123730 -2.673192 0.221211 -0.417429 -0.048398 26.857427 10.527574 -11.123722 0.000000 0.000000 0.000000 -75.642944 -21.659677 11.550392 146.168373 -25.641895 -20.555017 -11.420517 58.846366 -29.525613 22.865887 -24.662207 38.544730 0.000000 0.000000 0.000000 0.000000 0.000000 0.000000 -11.563284 7.389016 0.400478 5.354703 46.678527 15.760935 -26.734277 14.005715 10.280718 -10.388497 16.614399 -26.585742 0.000000 0.000000 0.000000 0.000000 0.000000 0.000000 -18.168641 18.948736 6.136869 -2.427102 -6.662098 -7.766606 43.539920 22.184245 1.406617 0.000000 0.000000 0.000000 6.806206 -1.297512 -3.936144 -10.117936 1.539309 2.442800 -11.410758 16.170660 25.710150 0.000000 0.000000 0.000000
